<mxfile host="app.diagrams.net" agent="Mozilla/5.0 (Windows NT 10.0; Win64; x64) AppleWebKit/537.36 (KHTML, like Gecko) Chrome/128.0.0.0 Safari/537.36 OPR/114.0.0.0 (Edition Yx GX)" version="24.8.3">
  <diagram name="Страница — 1" id="0RWe2QycB9tT0nJaaGQ6">
    <mxGraphModel dx="2033" dy="1162" grid="1" gridSize="10" guides="1" tooltips="1" connect="1" arrows="1" fold="1" page="1" pageScale="1" pageWidth="827" pageHeight="1169" math="0" shadow="0">
      <root>
        <mxCell id="0" />
        <mxCell id="1" parent="0" />
        <mxCell id="MLH-SA_f54EeBNrNCwSC-29" value="" style="rounded=0;whiteSpace=wrap;html=1;" vertex="1" parent="1">
          <mxGeometry x="90" y="340" width="480" height="500" as="geometry" />
        </mxCell>
        <mxCell id="MLH-SA_f54EeBNrNCwSC-1" value="" style="shape=ext;double=1;rounded=0;whiteSpace=wrap;html=1;" vertex="1" parent="1">
          <mxGeometry x="127" y="500" width="430" height="320" as="geometry" />
        </mxCell>
        <mxCell id="MLH-SA_f54EeBNrNCwSC-8" value="" style="rounded=1;whiteSpace=wrap;html=1;" vertex="1" parent="1">
          <mxGeometry x="167" y="590" width="170" height="200" as="geometry" />
        </mxCell>
        <mxCell id="MLH-SA_f54EeBNrNCwSC-2" value="&lt;font size=&quot;1&quot; face=&quot;Helvetica&quot; color=&quot;#5f6368&quot;&gt;&lt;span style=&quot;background-color: rgb(255, 255, 255);&quot;&gt;&lt;b style=&quot;font-size: 12px;&quot;&gt;Sidecar-контейнер&lt;/b&gt;&lt;/span&gt;&lt;/font&gt;" style="rounded=0;whiteSpace=wrap;html=1;" vertex="1" parent="1">
          <mxGeometry x="192" y="710" width="120" height="60" as="geometry" />
        </mxCell>
        <mxCell id="MLH-SA_f54EeBNrNCwSC-3" value="Пользователь" style="rounded=1;whiteSpace=wrap;html=1;" vertex="1" parent="1">
          <mxGeometry x="122" y="210" width="120" height="60" as="geometry" />
        </mxCell>
        <mxCell id="MLH-SA_f54EeBNrNCwSC-4" value="Kubernetes service" style="rounded=1;whiteSpace=wrap;html=1;" vertex="1" parent="1">
          <mxGeometry x="270" y="390" width="120" height="60" as="geometry" />
        </mxCell>
        <mxCell id="MLH-SA_f54EeBNrNCwSC-7" value="&lt;span style=&quot;font-size: 14px;&quot;&gt;Deployment&lt;/span&gt;" style="text;html=1;align=center;verticalAlign=middle;whiteSpace=wrap;rounded=0;" vertex="1" parent="1">
          <mxGeometry x="337" y="510" width="105" height="30" as="geometry" />
        </mxCell>
        <mxCell id="MLH-SA_f54EeBNrNCwSC-9" value="" style="rounded=1;whiteSpace=wrap;html=1;" vertex="1" parent="1">
          <mxGeometry x="367" y="590" width="170" height="200" as="geometry" />
        </mxCell>
        <mxCell id="MLH-SA_f54EeBNrNCwSC-5" value="&lt;b style=&quot;color: rgb(95, 99, 104);&quot;&gt;Sidecar-контейнер&lt;/b&gt;" style="rounded=0;whiteSpace=wrap;html=1;" vertex="1" parent="1">
          <mxGeometry x="392" y="710" width="120" height="60" as="geometry" />
        </mxCell>
        <mxCell id="MLH-SA_f54EeBNrNCwSC-10" value="Приложение" style="rounded=0;whiteSpace=wrap;html=1;" vertex="1" parent="1">
          <mxGeometry x="392" y="640" width="120" height="60" as="geometry" />
        </mxCell>
        <mxCell id="MLH-SA_f54EeBNrNCwSC-11" value="Приложение" style="rounded=0;whiteSpace=wrap;html=1;" vertex="1" parent="1">
          <mxGeometry x="192" y="640" width="120" height="60" as="geometry" />
        </mxCell>
        <mxCell id="MLH-SA_f54EeBNrNCwSC-14" value="&lt;span style=&quot;font-size: 14px;&quot;&gt;Pod 1&lt;/span&gt;" style="text;html=1;align=center;verticalAlign=middle;whiteSpace=wrap;rounded=0;" vertex="1" parent="1">
          <mxGeometry x="222" y="600" width="60" height="30" as="geometry" />
        </mxCell>
        <mxCell id="MLH-SA_f54EeBNrNCwSC-15" value="&lt;span style=&quot;font-size: 14px;&quot;&gt;Pod 2&lt;/span&gt;" style="text;html=1;align=center;verticalAlign=middle;whiteSpace=wrap;rounded=0;" vertex="1" parent="1">
          <mxGeometry x="422" y="600" width="60" height="30" as="geometry" />
        </mxCell>
        <mxCell id="MLH-SA_f54EeBNrNCwSC-24" value="32777" style="rounded=1;whiteSpace=wrap;html=1;" vertex="1" parent="1">
          <mxGeometry x="167" y="480" width="90" height="40" as="geometry" />
        </mxCell>
        <mxCell id="MLH-SA_f54EeBNrNCwSC-25" value="" style="endArrow=classic;html=1;rounded=0;entryX=0.4;entryY=0.02;entryDx=0;entryDy=0;entryPerimeter=0;exitX=0.75;exitY=1;exitDx=0;exitDy=0;" edge="1" parent="1" source="MLH-SA_f54EeBNrNCwSC-24" target="MLH-SA_f54EeBNrNCwSC-8">
          <mxGeometry width="50" height="50" relative="1" as="geometry">
            <mxPoint x="137" y="410" as="sourcePoint" />
            <mxPoint x="187" y="360" as="targetPoint" />
          </mxGeometry>
        </mxCell>
        <mxCell id="MLH-SA_f54EeBNrNCwSC-26" value="" style="endArrow=classic;html=1;rounded=0;entryX=0.429;entryY=0.005;entryDx=0;entryDy=0;entryPerimeter=0;exitX=0.75;exitY=1;exitDx=0;exitDy=0;" edge="1" parent="1" source="MLH-SA_f54EeBNrNCwSC-24" target="MLH-SA_f54EeBNrNCwSC-9">
          <mxGeometry width="50" height="50" relative="1" as="geometry">
            <mxPoint x="137" y="420" as="sourcePoint" />
            <mxPoint x="187" y="370" as="targetPoint" />
          </mxGeometry>
        </mxCell>
        <mxCell id="MLH-SA_f54EeBNrNCwSC-30" value="" style="endArrow=classic;html=1;rounded=0;exitX=0.5;exitY=1;exitDx=0;exitDy=0;entryX=0.5;entryY=0;entryDx=0;entryDy=0;" edge="1" parent="1" source="MLH-SA_f54EeBNrNCwSC-4" target="MLH-SA_f54EeBNrNCwSC-24">
          <mxGeometry width="50" height="50" relative="1" as="geometry">
            <mxPoint x="900" y="670" as="sourcePoint" />
            <mxPoint x="950" y="620" as="targetPoint" />
          </mxGeometry>
        </mxCell>
        <mxCell id="MLH-SA_f54EeBNrNCwSC-31" value="port" style="rounded=1;whiteSpace=wrap;html=1;" vertex="1" parent="1">
          <mxGeometry x="127" y="320" width="110" height="40" as="geometry" />
        </mxCell>
        <mxCell id="MLH-SA_f54EeBNrNCwSC-32" value="" style="endArrow=classic;html=1;rounded=0;exitX=0.5;exitY=1;exitDx=0;exitDy=0;entryX=0.5;entryY=0;entryDx=0;entryDy=0;" edge="1" parent="1" source="MLH-SA_f54EeBNrNCwSC-3" target="MLH-SA_f54EeBNrNCwSC-31">
          <mxGeometry width="50" height="50" relative="1" as="geometry">
            <mxPoint x="840" y="350" as="sourcePoint" />
            <mxPoint x="890" y="300" as="targetPoint" />
          </mxGeometry>
        </mxCell>
        <mxCell id="MLH-SA_f54EeBNrNCwSC-34" value="" style="endArrow=classic;html=1;rounded=0;entryX=0.5;entryY=1;entryDx=0;entryDy=0;exitX=0.5;exitY=0;exitDx=0;exitDy=0;" edge="1" parent="1" source="MLH-SA_f54EeBNrNCwSC-4" target="MLH-SA_f54EeBNrNCwSC-31">
          <mxGeometry width="50" height="50" relative="1" as="geometry">
            <mxPoint x="640" y="790" as="sourcePoint" />
            <mxPoint x="690" y="740" as="targetPoint" />
          </mxGeometry>
        </mxCell>
      </root>
    </mxGraphModel>
  </diagram>
</mxfile>
